# Blender v2.91.2 OBJ File: 'cage.blend'
# www.blender.org
mtllib cage.mtl
o Cube_Cube.001
v -1.000000 -1.000000 1.000000
v -1.000000 1.000000 1.000000
v -1.000000 -1.000000 -1.000000
v -1.000000 1.000000 -1.000000
v 19.000000 -1.000000 1.000000
v 19.000000 1.000000 1.000000
v 19.000000 -1.000000 -1.000000
v 19.000000 1.000000 -1.000000
v -1.000000 -0.900000 -0.900000
v -1.000000 -0.900000 0.900000
v -1.000000 0.900000 0.900000
v -1.000000 0.900000 -0.900000
v 19.000000 0.900000 -0.900000
v 19.000000 -0.900000 -0.900000
v 19.000000 -0.900000 0.900000
v 19.000000 0.900000 0.900000
v -0.900000 -0.900000 1.000000
v -0.900000 0.900000 1.000000
v -0.900000 0.900000 -1.000000
v -0.900000 -0.900000 -1.000000
v 18.900000 -0.900000 -1.000000
v 18.900000 0.900000 -1.000000
v 18.900000 0.900000 1.000000
v 18.900000 -0.900000 1.000000
v -0.900000 -1.000000 -0.900000
v -0.900000 -1.000000 0.900000
v -0.900000 1.000000 0.900000
v -0.900000 1.000000 -0.900000
v 18.900000 -1.000000 -0.900000
v 18.900000 1.000000 -0.900000
v 18.900000 -1.000000 0.900000
v 18.900000 1.000000 0.900000
v -0.900000 -0.900000 -0.900000
v -0.900000 -0.900000 0.900000
v -0.900000 0.900000 0.900000
v -0.900000 0.900000 -0.900000
v 18.900000 0.900000 -0.900000
v 18.900000 -0.900000 -0.900000
v 18.900000 -0.900000 0.900000
v 18.900000 0.900000 0.900000
v -0.900000 -0.900000 0.900000
v -0.900000 0.900000 0.900000
v -0.900000 0.900000 -0.900000
v -0.900000 -0.900000 -0.900000
v 18.900000 -0.900000 -0.900000
v 18.900000 0.900000 -0.900000
v 18.900000 0.900000 0.900000
v 18.900000 -0.900000 0.900000
v -0.900000 -0.900000 -0.900000
v -0.900000 -0.900000 0.900000
v -0.900000 0.900000 0.900000
v -0.900000 0.900000 -0.900000
v 18.900000 -0.900000 -0.900000
v 18.900000 0.900000 -0.900000
v 18.900000 -0.900000 0.900000
v 18.900000 0.900000 0.900000
vt 0.375000 1.000000
vt 0.625000 1.000000
vt 0.625000 1.000000
vt 0.375000 1.000000
vt 0.375000 1.000000
vt 0.625000 1.000000
vt 0.625000 0.250000
vt 0.375000 0.250000
vt 0.375000 0.250000
vt 0.625000 0.250000
vt 0.625000 0.250000
vt 0.375000 0.250000
vt 0.625000 0.750000
vt 0.625000 0.500000
vt 0.625000 0.500000
vt 0.625000 0.750000
vt 0.375000 0.750000
vt 0.125000 0.750000
vt 0.125000 0.750000
vt 0.375000 0.750000
vt 0.125000 0.500000
vt 0.375000 0.500000
vt 0.375000 0.500000
vt 0.125000 0.500000
vt 0.875000 0.500000
vt 0.625000 0.500000
vt 0.625000 0.500000
vt 0.875000 0.500000
vt 0.625000 0.750000
vt 0.625000 0.500000
vt 0.375000 0.500000
vt 0.375000 0.500000
vt 0.875000 0.750000
vt 0.875000 0.500000
vt 0.875000 0.500000
vt 0.875000 0.750000
vt 0.125000 0.500000
vt 0.125000 0.750000
vt 0.125000 0.500000
vt 0.375000 0.750000
vt 0.625000 0.500000
vt 0.375000 0.500000
vt 0.875000 0.500000
vt 0.875000 0.750000
vt 0.875000 0.750000
vt 0.875000 0.500000
vt 0.375000 0.750000
vt 0.125000 0.750000
vt 0.375000 0.500000
vt 0.125000 0.500000
vt 0.875000 0.750000
vt 0.625000 0.750000
vt 0.125000 0.500000
vt 0.375000 0.500000
vt 0.375000 0.250000
vt 0.625000 0.250000
vt 0.375000 0.750000
vt 0.625000 0.500000
vt 0.625000 0.750000
vt 0.625000 0.750000
vt 0.375000 0.750000
vt 0.375000 0.750000
vt 0.125000 0.750000
vt 0.625000 0.750000
vt 0.125000 0.750000
vt 0.125000 0.500000
vt 0.875000 0.750000
vt 0.125000 0.750000
vt 0.625000 1.000000
vt 0.375000 1.000000
vt 0.375000 1.000000
vt 0.625000 1.000000
vt 0.875000 0.500000
vt 0.875000 0.750000
vt 0.625000 0.250000
vt 0.375000 0.250000
vn -1.0000 0.0000 0.0000
vn 0.0000 0.0000 1.0000
vn 0.0000 0.0000 -1.0000
vn 0.0000 1.0000 0.0000
vn 0.0000 -1.0000 0.0000
vn 1.0000 0.0000 0.0000
usemtl None
s off
f 1/1/1 2/2/1 11/3/1 10/4/1
f 2/2/2 1/1/2 17/5/2 18/6/2
f 4/7/1 3/8/1 9/9/1 12/10/1
f 3/8/3 4/7/3 19/11/3 20/12/3
f 6/13/4 8/14/4 30/15/4 32/16/4
f 5/17/5 1/18/5 26/19/5 31/20/5
f 25/21/2 29/22/2 53/23/2 49/24/2
f 19/25/5 22/26/5 46/27/5 43/28/5
f 8/14/6 6/13/6 16/29/6 13/30/6
f 7/31/6 8/14/6 13/30/6 14/32/6
f 2/33/1 4/34/1 12/35/1 11/36/1
f 3/37/1 1/18/1 10/38/1 9/39/1
f 6/13/6 5/17/6 15/40/6 16/29/6
f 5/17/6 7/31/6 14/32/6 15/40/6
f 14/32/2 13/30/2 37/41/2 38/42/2
f 28/43/6 27/44/6 51/45/6 52/46/6
f 1/18/2 5/17/2 24/47/2 17/48/2
f 8/14/3 7/31/3 21/49/3 22/26/3
f 7/31/3 3/37/3 20/50/3 21/49/3
f 6/13/2 2/33/2 18/51/2 23/52/2
f 5/17/2 6/13/2 23/52/2 24/47/2
f 4/34/3 8/14/3 22/26/3 19/25/3
f 21/49/4 20/50/4 44/53/4 45/54/4
f 12/10/2 9/9/2 33/55/2 36/56/2
f 3/37/5 7/31/5 29/22/5 25/21/5
f 4/34/4 2/33/4 27/44/4 28/43/4
f 2/33/4 6/13/4 32/16/4 27/44/4
f 1/18/5 3/37/5 25/21/5 26/19/5
f 7/31/5 5/17/5 31/20/5 29/22/5
f 8/14/4 4/34/4 28/43/4 30/15/4
f 15/40/4 14/32/4 38/42/4 39/57/4
f 22/26/1 21/49/1 45/54/1 46/27/1
f 30/15/2 28/43/2 52/46/2 54/58/2
f 13/30/5 16/29/5 40/59/5 37/41/5
f 24/47/1 23/52/1 47/60/1 48/61/1
f 29/22/1 31/20/1 55/62/1 53/23/1
f 16/29/3 15/40/3 39/57/3 40/59/3
f 17/48/4 24/47/4 48/61/4 41/63/4
f 32/16/1 30/15/1 54/58/1 56/64/1
f 9/39/4 10/38/4 34/65/4 33/66/4
f 23/52/5 18/51/5 42/67/5 47/60/5
f 31/20/3 26/19/3 50/68/3 55/62/3
f 10/4/3 11/3/3 35/69/3 34/70/3
f 18/6/6 17/5/6 41/71/6 42/72/6
f 27/44/3 32/16/3 56/64/3 51/45/3
f 11/36/5 12/35/5 36/73/5 35/74/5
f 20/12/6 19/11/6 43/75/6 44/76/6
f 26/19/6 25/21/6 49/24/6 50/68/6
